<svg width="58" height="58" viewBox="0 0 58 58" fill="none" xmlns="http://www.w3.org/2000/svg">
<path d="M0 32.3687C0 31.2363 0.918043 30.3182 2.05051 30.3182H19.6818C24.1001 30.3182 27.6818 33.9 27.6818 38.3182V55.9496C27.6818 57.082 26.7638 58.0001 25.6313 58.0001C11.4755 58.0001 0 46.5245 0 32.3687Z" fill="#FF6D39"/>
<path d="M58 25.6313C58 26.7637 57.082 27.6818 55.9495 27.6818L38.3182 27.6818C33.8999 27.6818 30.3182 24.1 30.3182 19.6818L30.3182 2.05045C30.3182 0.917985 31.2362 -5.57455e-05 32.3687 -5.56465e-05C46.5245 -5.4409e-05 58 11.4755 58 25.6313Z" fill="#FF6D39"/>
<path d="M58 32.3687C58 31.2363 57.082 30.3182 55.9495 30.3182H38.3182C33.8999 30.3182 30.3182 33.9 30.3182 38.3182V55.9496C30.3182 57.082 31.2362 58.0001 32.3687 58.0001C46.5245 58.0001 58 46.5245 58 32.3687Z" fill="#FF6D39"/>
<path d="M1.79261e-07 25.6313C8.02577e-08 26.7637 0.918042 27.6818 2.05051 27.6818L19.6818 27.6818C24.1001 27.6818 27.6818 24.1 27.6818 19.6818L27.6818 2.05045C27.6818 0.917986 26.7638 -5.48807e-05 25.6313 -5.49797e-05C11.4755 -5.62172e-05 1.4168e-06 11.4755 1.79261e-07 25.6313Z" fill="#FF6D39"/>
</svg>
