<?xml version="1.0" standalone="no"?>
<!DOCTYPE svg PUBLIC "-//W3C//DTD SVG 20010904//EN"
 "http://www.w3.org/TR/2001/REC-SVG-20010904/DTD/svg10.dtd">
<svg version="1.0" xmlns="http://www.w3.org/2000/svg"
 width="700.000000pt" height="700.000000pt" viewBox="0 0 700.000000 700.000000"
 preserveAspectRatio="xMidYMid meet">
<metadata>
Created by potrace 1.14, written by Peter Selinger 2001-2017
</metadata>
<g transform="translate(0.000000,700.000000) scale(0.100000,-0.100000)"
fill="#000000" stroke="none">
<path d="M3280 6994 c-19 -2 -84 -9 -145 -14 -578 -56 -1180 -283 -1660 -625
-237 -169 -531 -446 -709 -670 -416 -521 -673 -1147 -748 -1820 -17 -154 -17
-585 0 -730 69 -588 254 -1099 567 -1570 126 -189 242 -332 410 -504 580 -595
1295 -943 2140 -1043 145 -17 576 -17 730 0 822 91 1556 447 2131 1034 203
206 348 390 487 618 274 449 432 915 499 1465 16 135 16 591 0 730 -100 846
-447 1557 -1043 2141 -555 542 -1249 874 -2029 970 -117 15 -553 27 -630 18z
m100 -1943 l0 -568 -77 -7 c-354 -29 -663 -243 -814 -561 -67 -142 -84 -226
-84 -415 0 -194 18 -277 90 -425 50 -104 100 -174 188 -264 160 -163 384 -268
620 -287 l77 -7 0 -568 0 -569 -90 0 c-181 0 -451 53 -649 127 -201 75 -437
208 -599 339 -87 70 -256 240 -325 327 -210 266 -357 580 -421 899 -61 300
-61 556 0 856 64 319 211 633 421 899 73 92 241 261 333 334 350 278 824 455
1228 458 l102 1 0 -569z m555 550 c306 -46 594 -154 845 -319 139 -91 214
-152 338 -275 178 -176 300 -346 412 -572 292 -592 292 -1278 0 -1870 -112
-226 -234 -396 -412 -572 -124 -122 -199 -184 -336 -274 -307 -201 -674 -321
-1029 -336 l-133 -6 0 570 0 570 78 7 c171 14 360 82 496 180 75 53 198 181
249 259 54 81 102 188 129 288 20 72 23 108 23 249 0 141 -3 177 -23 250 -85
315 -330 575 -639 679 -70 24 -217 51 -274 51 l-39 0 0 570 0 570 93 0 c50 0
151 -9 222 -19z"/>
</g>
</svg>
